<svg xmlns="http://www.w3.org/2000/svg" viewBox="26 39 238 180" width="238" height="180">
<path d="M 146 178 L 146 179 L 153 179 L 153 178 Z" fill="none" stroke="#D29A8A" stroke-width="1.6" stroke-linecap="round" stroke-linejoin="round"/><path d="M 162 177 L 162 178 L 168 178 L 168 177 Z" fill="none" stroke="#D29A8A" stroke-width="1.6" stroke-linecap="round" stroke-linejoin="round"/><path d="M 130 177 L 130 178 L 137 179 L 136 177 Z" fill="none" stroke="#D29A8A" stroke-width="1.6" stroke-linecap="round" stroke-linejoin="round"/><path d="M 177 176 L 178 175 L 180 175 L 184 179 L 184 180 L 183 181 L 180 181 Z" fill="none" stroke="#D29A8A" stroke-width="1.6" stroke-linecap="round" stroke-linejoin="round"/><path d="M 115 174 L 115 175 L 117 176 L 121 176 L 121 175 Z" fill="none" stroke="#D29A8A" stroke-width="1.6" stroke-linecap="round" stroke-linejoin="round"/><path d="M 101 169 L 101 170 L 108 173 L 107 171 L 105 171 Z" fill="none" stroke="#D29A8A" stroke-width="1.6" stroke-linecap="round" stroke-linejoin="round"/><path d="M 200 168 L 198 168 L 196 170 L 192 171 L 192 172 L 194 172 L 200 169 Z" fill="none" stroke="#D29A8A" stroke-width="1.6" stroke-linecap="round" stroke-linejoin="round"/><path d="M 238 166 L 237 170 L 235 172 L 233 172 L 233 173 L 237 176 L 237 179 L 239 180 L 239 176 L 242 173 L 244 173 L 244 172 L 242 172 L 239 169 L 239 166 Z" fill="none" stroke="#D29A8A" stroke-width="1.6" stroke-linecap="round" stroke-linejoin="round"/><path d="M 212 161 L 209 162 L 206 164 L 206 165 L 209 164 L 212 162 Z" fill="none" stroke="#D29A8A" stroke-width="1.6" stroke-linecap="round" stroke-linejoin="round"/><path d="M 87 161 L 88 163 L 94 166 L 93 164 Z" fill="none" stroke="#D29A8A" stroke-width="1.6" stroke-linecap="round" stroke-linejoin="round"/><path d="M 64 160 L 63 162 L 65 163 L 66 161 Z" fill="none" stroke="#D29A8A" stroke-width="1.6" stroke-linecap="round" stroke-linejoin="round"/><path d="M 78 155 L 78 156 L 81 158 L 81 157 Z" fill="none" stroke="#D29A8A" stroke-width="1.6" stroke-linecap="round" stroke-linejoin="round"/><path d="M 222 154 L 219 155 L 217 158 L 222 155 Z" fill="none" stroke="#D29A8A" stroke-width="1.6" stroke-linecap="round" stroke-linejoin="round"/><path d="M 205 151 L 206 150 L 207 151 L 206 152 Z" fill="none" stroke="#D29A8A" stroke-width="1.6" stroke-linecap="round" stroke-linejoin="round"/><path d="M 155 146 L 155 147 L 157 148 L 157 147 Z" fill="none" stroke="#D29A8A" stroke-width="1.6" stroke-linecap="round" stroke-linejoin="round"/><path d="M 159 151 L 163 157 L 160 159 L 159 161 L 163 161 L 164 159 L 176 173 L 176 177 L 180 183 L 179 184 L 179 187 L 189 199 L 194 199 L 191 199 L 189 197 L 189 195 L 186 193 L 187 191 L 184 191 L 181 187 L 181 185 L 187 179 L 189 179 L 194 184 L 202 195 L 206 199 L 208 199 L 191 178 L 189 177 L 186 178 L 181 173 L 178 173 L 166 159 L 166 158 L 167 157 L 169 157 L 171 154 L 172 149 L 173 148 L 173 145 L 172 145 L 170 153 L 166 157 L 164 156 L 160 151 Z" fill="none" stroke="#D29A8A" stroke-width="1.6" stroke-linecap="round" stroke-linejoin="round"/><path d="M 233 144 L 232 144 L 228 148 L 228 149 L 229 149 L 233 145 Z" fill="none" stroke="#D29A8A" stroke-width="1.6" stroke-linecap="round" stroke-linejoin="round"/><path d="M 65 144 L 66 146 L 70 148 L 67 144 Z" fill="none" stroke="#D29A8A" stroke-width="1.6" stroke-linecap="round" stroke-linejoin="round"/><path d="M 146 135 L 147 134 L 148 136 L 147 137 Z" fill="none" stroke="#D29A8A" stroke-width="1.6" stroke-linecap="round" stroke-linejoin="round"/><path d="M 47 134 L 46 135 L 46 137 L 49 135 L 50 136 L 49 138 L 50 138 L 51 137 L 51 135 L 50 134 Z" fill="none" stroke="#D29A8A" stroke-width="1.6" stroke-linecap="round" stroke-linejoin="round"/><path d="M 65 129 L 66 128 L 67 129 L 66 130 Z" fill="none" stroke="#D29A8A" stroke-width="1.6" stroke-linecap="round" stroke-linejoin="round"/><path d="M 234 122 L 235 121 L 237 122 L 236 123 Z" fill="none" stroke="#D29A8A" stroke-width="1.6" stroke-linecap="round" stroke-linejoin="round"/><path d="M 232 121 L 233 120 L 235 121 L 234 122 Z" fill="none" stroke="#D29A8A" stroke-width="1.6" stroke-linecap="round" stroke-linejoin="round"/><path d="M 109 122 L 110 121 L 113 121 L 114 120 L 116 120 L 120 118 L 124 118 L 125 117 L 131 117 L 132 118 L 137 118 L 138 119 L 148 120 L 149 121 L 156 121 L 159 119 L 161 119 L 165 117 L 173 117 L 174 118 L 182 119 L 190 122 L 186 124 L 172 125 L 171 126 L 167 126 L 166 127 L 158 128 L 157 129 L 153 129 L 152 130 L 141 129 L 140 128 L 137 128 L 136 127 L 133 127 L 128 125 L 124 125 L 123 124 L 124 123 L 127 123 L 127 122 L 124 121 L 122 124 L 114 124 Z" fill="none" stroke="#D29A8A" stroke-width="1.6" stroke-linecap="round" stroke-linejoin="round"/><path d="M 160 112 L 161 111 L 165 111 L 166 112 L 165 113 L 161 113 Z" fill="none" stroke="#D29A8A" stroke-width="1.6" stroke-linecap="round" stroke-linejoin="round"/><path d="M 168 109 L 169 110 L 166 112 L 165 111 Z" fill="none" stroke="#D29A8A" stroke-width="1.6" stroke-linecap="round" stroke-linejoin="round"/><path d="M 232 97 L 232 99 L 234 99 L 234 97 Z" fill="none" stroke="#D29A8A" stroke-width="1.6" stroke-linecap="round" stroke-linejoin="round"/><path d="M 60 123 L 62 121 L 64 121 L 68 119 L 70 117 L 79 112 L 91 103 L 96 98 L 100 96 L 106 91 L 115 86 L 121 85 L 122 84 L 132 84 L 148 91 L 151 91 L 156 88 L 158 88 L 161 86 L 163 86 L 167 84 L 177 84 L 193 91 L 212 105 L 220 112 L 233 120 L 232 121 L 221 121 L 220 120 L 217 120 L 216 119 L 221 117 L 221 116 L 215 113 L 211 113 L 207 115 L 197 116 L 196 115 L 191 114 L 189 112 L 190 111 L 192 111 L 192 109 L 190 108 L 185 108 L 184 107 L 172 107 L 171 108 L 170 107 L 167 107 L 166 108 L 165 107 L 163 107 L 162 108 L 155 108 L 156 111 L 158 111 L 161 113 L 157 115 L 155 114 L 153 111 L 152 111 L 151 113 L 150 112 L 150 110 L 146 108 L 140 108 L 139 109 L 138 108 L 135 108 L 132 110 L 131 112 L 128 110 L 127 110 L 126 112 L 123 110 L 124 108 L 120 108 L 119 109 L 117 109 L 115 111 L 113 111 L 109 114 L 101 115 L 96 118 L 94 118 L 87 121 L 83 121 L 82 122 L 72 121 L 66 124 L 61 124 Z" fill="none" stroke="#D29A8A" stroke-width="1.6" stroke-linecap="round" stroke-linejoin="round"/><path d="M 220 84 L 222 83 L 223 85 L 221 86 Z" fill="none" stroke="#D29A8A" stroke-width="1.6" stroke-linecap="round" stroke-linejoin="round"/><path d="M 219 83 L 219 86 L 220 87 L 224 86 L 224 83 L 223 82 L 220 82 Z" fill="none" stroke="#D29A8A" stroke-width="1.6" stroke-linecap="round" stroke-linejoin="round"/><path d="M 55 122 L 55 124 L 62 128 L 80 145 L 95 156 L 115 165 L 118 165 L 122 167 L 127 167 L 128 168 L 135 168 L 136 169 L 161 169 L 161 167 L 132 167 L 131 166 L 126 166 L 125 165 L 121 165 L 120 164 L 117 164 L 116 163 L 111 162 L 106 159 L 102 158 L 100 156 L 95 154 L 86 148 L 66 130 L 67 129 L 70 129 L 71 130 L 74 130 L 79 132 L 88 132 L 89 133 L 105 134 L 106 135 L 119 136 L 120 137 L 124 137 L 125 138 L 126 138 L 126 137 L 130 134 L 131 135 L 133 135 L 135 138 L 139 138 L 140 139 L 140 141 L 144 141 L 145 142 L 148 141 L 149 142 L 149 144 L 150 144 L 150 133 L 151 132 L 152 133 L 152 142 L 155 141 L 156 137 L 160 135 L 163 137 L 167 137 L 171 139 L 172 137 L 173 138 L 179 138 L 180 137 L 192 136 L 197 132 L 201 132 L 203 134 L 205 134 L 206 135 L 215 134 L 216 133 L 218 133 L 219 134 L 214 138 L 214 139 L 220 139 L 221 140 L 212 148 L 211 148 L 210 146 L 204 146 L 200 150 L 201 152 L 203 151 L 205 152 L 203 154 L 188 162 L 180 164 L 180 165 L 182 165 L 183 164 L 186 164 L 187 163 L 192 162 L 204 156 L 219 145 L 233 131 L 241 125 L 243 125 L 244 124 L 244 122 L 238 121 L 230 117 L 221 111 L 203 96 L 191 88 L 183 84 L 176 83 L 175 82 L 168 82 L 167 83 L 164 83 L 152 89 L 147 89 L 138 84 L 132 83 L 131 82 L 119 83 L 106 89 L 100 93 L 87 104 L 69 117 L 59 122 Z" fill="none" stroke="#D29A8A" stroke-width="1.6" stroke-linecap="round" stroke-linejoin="round"/><path d="M 83 59 L 83 64 L 82 66 L 78 69 L 75 69 L 75 70 L 79 70 L 82 73 L 83 75 L 83 79 L 84 79 L 85 73 L 89 70 L 92 70 L 92 69 L 89 69 L 85 66 L 84 64 L 84 59 Z" fill="none" stroke="#D29A8A" stroke-width="1.6" stroke-linecap="round" stroke-linejoin="round"/>
</svg>